<svg width="319" height="374" viewBox="0 0 319 374" fill="none" xmlns="http://www.w3.org/2000/svg">
<path d="M319 319.246C285.183 353.074 238.47 373.999 186.876 373.999C135.272 373.999 88.5536 353.067 54.7357 319.228C20.9165 285.388 0 238.637 0 187C0 135.363 20.9165 88.61 54.7357 54.7705C88.4617 21.0202 135.024 0.113422 186.462 0.0010376V18.7702C141.869 18.8815 99.5347 36.4839 67.9995 68.042C36.3642 99.6982 18.7581 142.224 18.7581 186.999C18.7581 231.772 36.3642 274.299 67.9995 305.955C99.6338 337.611 142.131 355.229 186.876 355.229C231.612 355.229 274.099 337.62 305.732 305.978L319 319.246V319.246Z" fill="#CC0EF1"/>
</svg>
